# xmcd
# 
# Track frame offsets:
#     150
#     17392
#     42370
#     60865
# 
# Disc length: 1035
# 
# Revision: 1
# Processed by: cddbd v1.5.2PL0 Copyright (c) Steve Scherf et al.
# Submitted via: fre:ac v1.0.17
# 
DISCID=21040904
DTITLE=Missalina Rei - 虹色した飴玉のもたらした幸福なひと達の生誕からその顛末まで
DYEAR=1998
DGENRE=visual kei
TTITLE0=欺瞞譚 ～紅色した飴玉のもたらした幸福な人達の生誕からその顛末まで～
TTITLE1=妖精
TTITLE2=そして君に出逢う
TTITLE3=桜花乱舞
EXTD=nijiiro shita amedama no motarashita koufuku na hitotachi no seitan kara sono tenmatsu made
EXTT0=gimandan ～nijiiro shita amedama no motarashita koufuku na hitotachi no seitan kara sono tenmatsu made～
EXTT1=yousei
EXTT2=soshite kimi ni deau
EXTT3=ouka ranbu
PLAYORDER=
